<?xml version="1.0" standalone="no"?>
<!DOCTYPE svg PUBLIC "-//W3C//DTD SVG 20010904//EN"
 "http://www.w3.org/TR/2001/REC-SVG-20010904/DTD/svg10.dtd">
<svg version="1.0" xmlns="http://www.w3.org/2000/svg"
 width="2304.000000pt" height="2304.000000pt" viewBox="0 0 2304.000000 2304.000000"
 preserveAspectRatio="xMidYMid meet">
<metadata>
Created by potrace 1.11, written by Peter Selinger 2001-2013
</metadata>
<g transform="translate(0.000000,2304.000000) scale(0.100000,-0.100000)"
fill="#000000" stroke="none">
<path d="M12565 18184 c-117 -22 -192 -42 -455 -124 -91 -29 -230 -72 -310
-97 -80 -24 -179 -55 -220 -68 -41 -13 -169 -53 -285 -89 -415 -128 -795 -246
-1080 -334 -159 -50 -364 -114 -455 -142 -91 -28 -205 -64 -255 -79 -154 -49
-374 -118 -530 -166 -82 -26 -197 -61 -255 -80 -58 -18 -179 -57 -270 -85 -91
-29 -269 -85 -396 -126 -127 -40 -316 -96 -420 -124 -251 -68 -351 -116 -451
-218 -40 -40 -73 -80 -73 -88 0 -39 75 -83 328 -195 336 -148 490 -239 618
-363 l41 -40 -84 -86 c-227 -228 -417 -522 -558 -864 l-41 -98 -72 -19 c-107
-27 -186 -73 -273 -159 -127 -126 -179 -254 -179 -435 0 -160 63 -307 185
-428 73 -73 71 -58 38 -217 -19 -95 -99 -435 -112 -475 -31 -95 -93 -453 -107
-615 -7 -92 -11 -269 -6 -291 2 -11 33 -28 80 -45 71 -25 110 -41 202 -81 89
-39 170 -48 253 -29 34 8 254 102 284 121 19 13 21 21 18 82 -3 37 -7 114 -10
170 -3 56 -7 119 -9 140 -4 33 -12 119 -21 218 -3 37 -16 160 -20 200 -2 17
-7 73 -10 125 -4 52 -9 111 -11 130 -5 45 -5 319 0 345 3 11 5 32 5 47 1 21 7
28 31 33 68 15 176 80 246 150 81 80 150 211 169 325 9 49 9 170 0 211 -23
116 -102 267 -164 315 -13 10 -10 20 14 70 116 239 250 406 526 658 118 108
194 127 489 121 113 -2 219 -6 235 -8 17 -3 57 -8 90 -12 33 -3 67 -8 75 -10
8 -2 38 -6 65 -10 82 -10 217 -33 222 -39 1 -1 -19 -19 -45 -39 -142 -110
-374 -345 -492 -497 -19 -25 -38 -49 -43 -55 -63 -78 -183 -267 -249 -395 -80
-153 -181 -414 -202 -521 -2 -13 -11 -53 -20 -89 -8 -36 -18 -90 -21 -120 -4
-30 -9 -58 -11 -61 -2 -4 -7 -58 -11 -120 -16 -257 -2 -442 51 -684 15 -69 59
-219 76 -260 4 -11 19 -49 33 -85 73 -188 188 -397 321 -580 34 -47 169 -215
186 -230 3 -3 20 -22 39 -42 l34 -37 -49 -53 c-187 -198 -404 -529 -505 -768
-59 -141 -127 -357 -145 -460 -3 -14 -7 -32 -9 -40 -2 -8 -7 -37 -11 -65 -3
-27 -8 -53 -10 -56 -5 -9 -18 -224 -17 -309 0 -80 11 -261 18 -295 3 -11 7
-36 9 -55 5 -30 10 -61 32 -168 17 -86 87 -291 141 -413 56 -130 200 -384 255
-454 5 -5 32 -41 60 -80 112 -153 298 -352 458 -491 24 -21 54 -47 65 -57 11
-10 63 -51 115 -90 52 -40 101 -78 108 -84 7 -7 17 -13 21 -13 4 0 16 -8 27
-18 24 -22 201 -134 314 -199 121 -70 328 -173 445 -223 55 -23 114 -48 130
-56 28 -11 214 -81 242 -89 8 -3 13 -71 15 -247 3 -239 4 -245 29 -293 14 -28
44 -64 68 -82 23 -18 37 -33 29 -34 -7 0 -21 -2 -31 -4 -10 -2 -46 -6 -80 -9
-34 -4 -76 -8 -92 -10 -29 -4 -57 -8 -170 -21 -27 -4 -63 -8 -80 -11 -16 -2
-50 -6 -75 -9 -25 -3 -56 -8 -70 -10 -14 -3 -47 -7 -75 -11 -27 -3 -57 -7 -65
-9 -8 -1 -40 -6 -70 -10 -30 -4 -64 -9 -75 -11 -10 -2 -37 -6 -60 -9 -65 -10
-247 -39 -315 -51 -14 -2 -41 -7 -60 -10 -19 -2 -57 -9 -85 -14 -27 -5 -66
-12 -85 -15 -19 -3 -96 -17 -170 -30 -74 -13 -151 -27 -170 -30 -19 -3 -53
-10 -75 -15 -22 -5 -56 -11 -75 -14 -19 -3 -116 -21 -214 -41 -99 -19 -191
-37 -205 -40 -30 -6 -42 -8 -180 -36 -57 -11 -114 -23 -125 -25 -37 -7 -245
-49 -296 -59 -24 -5 -94 -19 -150 -30 -27 -5 -61 -12 -100 -21 -26 -6 -149
-31 -185 -38 -11 -2 -132 -27 -270 -55 -385 -79 -453 -89 -640 -89 -193 0
-318 15 -495 59 -171 42 -325 98 -497 181 -88 42 -297 156 -337 184 -11 8 -59
39 -106 69 -47 30 -90 59 -97 65 -7 5 -15 10 -18 10 -3 0 -11 5 -18 10 -7 6
-73 54 -147 107 -74 53 -145 103 -157 112 -14 10 -22 27 -23 45 0 28 -1 28
-19 12 -21 -19 -67 -23 -123 -12 -21 5 -38 6 -38 3 0 -9 56 -90 124 -182 53
-71 267 -294 339 -352 121 -99 377 -277 507 -352 217 -126 352 -199 628 -341
56 -29 102 -56 102 -59 0 -4 -48 -19 -107 -35 -318 -85 -729 -229 -1003 -353
-198 -89 -336 -154 -480 -227 l-165 -83 -3 -97 c-1 -53 0 -96 4 -96 3 0 146
41 317 91 172 50 365 106 431 125 65 19 124 33 131 30 7 -2 15 -19 19 -38 4
-18 10 -46 14 -63 11 -53 6 -178 -11 -241 -23 -87 -58 -159 -157 -324 -90
-149 -116 -196 -144 -264 -21 -51 -20 -49 55 64 204 312 406 525 724 768 6 4
48 33 95 63 239 157 493 274 800 368 198 61 468 139 545 157 6 1 100 25 210
52 171 43 258 64 405 98 36 8 61 13 95 20 17 2 46 9 65 14 43 11 222 49 269
56 18 3 43 8 55 10 11 2 59 11 106 20 47 9 94 18 105 20 30 6 126 23 160 28
17 3 71 12 120 20 92 15 136 22 203 31 36 5 62 9 127 19 17 2 53 7 80 11 28 3
64 8 80 10 17 3 69 9 117 15 47 6 104 12 125 15 37 4 174 19 283 30 30 3 80 8
110 10 51 3 115 9 250 20 30 2 105 7 165 11 61 3 130 7 155 9 299 24 1278 24
1665 0 22 -2 99 -6 170 -9 72 -4 146 -9 165 -11 19 -2 73 -7 120 -11 47 -3 99
-7 115 -9 119 -10 194 -17 220 -20 17 -2 57 -6 90 -10 115 -12 150 -16 185
-20 220 -27 276 -35 310 -40 14 -2 45 -6 70 -9 84 -10 411 -62 640 -101 45 -8
192 -36 320 -62 69 -13 136 -27 150 -29 14 -2 45 -9 70 -14 25 -6 54 -12 65
-15 20 -4 156 -33 185 -40 8 -2 38 -8 65 -15 28 -6 97 -22 155 -36 58 -14 112
-27 120 -29 53 -11 214 -52 390 -100 113 -31 212 -57 220 -59 41 -10 293 -85
555 -164 188 -57 832 -273 900 -302 11 -4 63 -22 115 -40 52 -18 104 -36 115
-40 11 -5 88 -32 170 -60 83 -28 181 -63 218 -76 38 -13 70 -24 73 -24 2 0 4
337 4 749 l0 749 -102 32 c-57 17 -119 36 -138 43 -19 6 -39 12 -45 13 -9 2
-276 77 -420 119 -143 41 -439 115 -795 199 -94 22 -576 122 -640 132 -55 9
-86 14 -110 19 -43 8 -133 24 -174 31 -21 3 -48 7 -59 10 -12 2 -39 6 -62 9
-22 4 -83 13 -135 21 -52 9 -108 17 -125 20 -16 2 -46 6 -65 9 -19 3 -51 8
-70 10 -41 5 -101 13 -150 20 -19 2 -96 11 -170 20 -74 8 -151 17 -170 20 -19
2 -66 7 -105 10 -38 3 -86 8 -105 10 -65 8 -185 18 -202 17 -10 0 -18 0 -18 1
0 1 7 24 15 51 11 37 15 102 15 257 l0 207 28 7 c59 14 265 91 422 158 244
103 526 254 711 378 242 161 405 294 584 474 133 134 168 173 260 291 251 319
424 676 500 1027 23 107 28 136 41 237 4 25 8 126 9 225 3 163 -1 230 -19 365
-6 42 -9 56 -21 120 -3 14 -8 38 -11 54 -2 16 -7 33 -10 38 -3 4 -7 18 -9 29
-29 147 -156 453 -268 639 -89 150 -214 320 -333 454 -35 39 -64 75 -64 79 0
4 10 18 23 31 229 235 468 616 578 925 22 62 78 252 85 291 44 233 48 276 49
490 0 253 -12 350 -70 582 -83 324 -266 678 -506 978 -87 108 -299 328 -404
418 -41 35 -55 52 -45 56 8 2 80 23 160 46 579 164 1261 373 1485 455 55 20
107 39 115 41 258 65 328 91 395 149 47 40 94 118 113 187 l10 37 -81 52 c-74
47 -188 109 -201 109 -4 0 -487 172 -716 255 -36 13 -130 46 -210 75 -80 28
-174 62 -210 75 -36 13 -129 46 -207 74 -79 28 -207 74 -285 102 -79 28 -179
64 -223 79 -312 111 -372 132 -390 140 -11 4 -74 27 -140 50 -66 23 -149 52
-185 65 -36 13 -123 45 -195 70 -71 25 -159 57 -195 70 -36 13 -137 49 -225
80 -88 31 -169 60 -180 65 -11 5 -54 20 -95 34 -41 14 -120 41 -175 61 -55 20
-201 72 -325 116 -124 44 -234 83 -245 88 -11 5 -72 27 -135 49 -63 22 -267
95 -452 161 -186 66 -368 127 -405 134 -84 18 -245 18 -338 1z m282 -11529
l312 0 0 -76 c0 -42 3 -88 6 -102 7 -24 4 -27 -21 -28 -16 -1 -38 -3 -49 -4
-11 -1 -67 -6 -125 -9 -121 -8 -214 -15 -285 -21 -27 -2 -97 -7 -155 -10 -58
-4 -117 -8 -132 -9 l-26 -3 19 44 c14 33 19 68 19 132 0 48 3 91 7 94 3 4 31
4 62 0 31 -4 196 -7 368 -8z m-1357 -253 c0 -4 11 -19 25 -34 14 -15 21 -29
17 -31 -4 -2 -31 -5 -61 -6 -30 -1 -60 -5 -65 -9 -6 -3 7 15 29 41 38 44 55
56 55 39z m460 -12 c9 -17 7 -20 -15 -26 -33 -8 -40 -1 -23 25 16 26 24 26 38
1z"/>
<path d="M4989 8633 c-82 -86 -197 -226 -272 -332 l-67 -93 0 -642 0 -641 50
-84 c28 -46 50 -88 50 -92 0 -4 3 -9 8 -11 8 -4 52 -65 52 -73 0 -9 101 -145
109 -145 11 0 144 112 195 165 149 155 259 352 310 557 34 132 37 155 41 323
4 154 -8 278 -40 400 -9 33 -20 76 -25 95 -15 64 -84 229 -131 318 -59 108
-201 311 -220 312 -3 0 -30 -26 -60 -57z"/>
</g>
</svg>
